PathFileType	4	(X/Y/Z)	c:/Users/goper/Files/vsCode/490R/osim_files/C08/C08_Fast_04.trc
DataRate	CameraRate	NumFrames	NumMarkers	Units                	OrigDataRate	OrigDataStartFrame	OrigNumFrames
250.00	250.00	11	36	mm	250.0	886	2362
                Frame#	Time	LPSIS			LASIS			LTH1			LTH2			LTH3			LTH4			LLFE			LMFE			LSH1			LSH2			LSH3			LSH4			LLMAL			LMMAL			LCAL			LMTP5			LTOE			LMTP1			RPSIS			RASIS			RTH1			RTH2			RTH3			RTH4			RLFE			RMFE			RSH1			RSH2			RSH3			RSH4			RLMAL			RMMAL			RCAL			RMTP1			RTOE			RMTP5		
		X1	Y1	Z1	X2	Y2	Z2	X3	Y3	Z3	X4	Y4	Z4	X5	Y5	Z5	X6	Y6	Z6	X7	Y7	Z7	X8	Y8	Z8	X9	Y9	Z9	X10	Y10	Z10	X11	Y11	Z11	X12	Y12	Z12	X13	Y13	Z13	X14	Y14	Z14	X15	Y15	Z15	X16	Y16	Z16	X17	Y17	Z17	X18	Y18	Z18	X19	Y19	Z19	X20	Y20	Z20	X21	Y21	Z21	X22	Y22	Z22	X23	Y23	Z23	X24	Y24	Z24	X25	Y25	Z25	X26	Y26	Z26	X27	Y27	Z27	X28	Y28	Z28	X29	Y29	Z29	X30	Y30	Z30	X31	Y31	Z31	X32	Y32	Z32	X33	Y33	Z33	X34	Y34	Z34	X35	Y35	Z35	X36	Y36	Z36

886	3.54000	564.91180	1053.63232	191.68120	367.21274	1014.35504	293.26773	407.04633	734.59045	368.57898	383.40695	658.73828	358.59534	363.95108	587.67590	358.49243	307.40848	685.11969	358.13171	356.83594	541.35535	353.08002	314.24271	531.24255	228.62790	450.45599	487.72241	349.50351	478.26855	449.37137	347.57339	404.71890	447.67685	361.40283	437.11508	415.52328	355.20908	653.15106	246.04869	286.39835	617.99286	229.94855	204.69611	703.19208	272.26059	219.96817	624.42542	123.19865	327.82425	557.51208	94.91706	279.56259	588.91461	97.27208	223.27730	559.07373	1053.51343	132.20929	356.86215	1020.43561	53.94753	407.99048	751.83313	-2.31949	402.04242	674.68945	18.58241	398.46030	596.13458	31.47285	329.18878	684.69995	45.22668	390.04663	525.72113	49.62412	395.35269	522.90765	173.00990	446.50705	442.51770	32.57556	442.31219	397.68771	29.60386	384.94275	440.31592	44.53543	389.34561	395.74118	40.29566	470.15750	101.07126	98.08905	439.56924	108.38177	187.64241	527.21405	78.56454	168.97849	313.40131	48.66314	176.73891	295.48132	66.11831	122.71474	347.43161	46.11407	63.44349
887	3.54400	559.53912	1054.12488	192.22015	362.44553	1015.44196	292.61661	399.06961	735.92859	368.66187	374.83820	660.25781	358.68961	354.66425	589.31744	358.39145	299.06921	687.28168	357.32559	347.21127	542.95898	352.68790	305.44144	533.43066	227.99289	440.45334	487.91333	349.23764	467.51816	449.31625	348.15866	394.10889	448.48053	360.95514	425.41202	416.86816	354.10223	640.12665	243.39902	286.99008	604.69391	227.63356	205.28224	690.93195	268.32803	220.71127	608.24646	121.05556	328.56201	541.29370	94.02309	280.12744	573.29810	95.78022	223.81816	554.18188	1054.22363	132.63220	352.39221	1021.35828	53.52984	404.33731	751.95496	-2.42288	399.57089	675.00476	18.45029	396.67209	596.46307	31.38046	326.71555	684.48328	45.23938	388.82657	525.92334	49.57057	393.97977	523.12671	172.98857	445.75479	442.90985	32.61229	441.67783	398.07419	29.61711	384.10184	440.53061	44.44095	388.73746	395.96649	40.17819	469.95465	101.32603	98.09412	439.37766	108.60794	187.62706	527.07904	78.77447	169.08046	313.34738	48.66931	176.72173	295.40292	66.04523	122.67410	347.41199	46.08118	63.41228
888	3.54800	554.52362	1054.78845	192.63683	357.47433	1016.53210	291.98990	391.03586	737.22662	368.73621	366.28247	661.71899	358.75085	345.40359	590.97498	358.27740	290.79074	689.47906	356.59833	338.05045	544.76422	352.45804	296.72202	535.60516	227.31746	430.53513	487.95660	348.99539	456.94592	449.00760	348.07123	383.49109	449.22092	360.46326	412.44785	415.83606	351.67130	626.45087	240.11319	287.61603	591.35095	225.20108	205.78214	678.35583	264.17090	221.53423	592.24377	118.82430	329.37570	524.98682	92.88647	280.56558	557.37396	93.92039	224.41988	549.28040	1054.90283	133.04141	346.74664	1022.19348	53.30750	401.50702	752.39545	-2.46950	397.08313	675.29889	18.35654	394.86511	596.78101	31.26218	324.22153	684.23065	45.23247	387.57935	526.08960	49.52689	392.58118	523.25995	172.89131	444.95865	443.32205	32.67972	441.07016	398.45154	29.64592	383.42767	440.73248	44.33344	388.05475	396.21085	40.07851	469.75272	101.59735	98.11563	439.19272	108.78894	187.64743	526.36816	78.59890	169.67801	313.26239	48.66380	176.66615	295.25629	65.93076	122.73653	347.36594	46.04704	63.40110
889	3.55200	549.49353	1055.41626	193.05188	352.29410	1017.66663	291.32520	383.10529	738.54865	368.86258	356.87424	662.74329	358.28281	336.30331	592.64642	358.20053	282.45883	691.70294	355.70361	328.06989	546.14795	351.93787	288.24493	537.71863	226.60910	420.42627	487.93604	348.73389	446.46219	448.62329	347.91568	373.25095	450.17169	360.02557	401.41089	415.90616	351.38995	612.91278	236.95496	288.27414	577.89026	222.63301	206.30235	665.46991	259.73355	222.39850	576.04877	116.52237	330.10068	508.54031	91.94063	281.11102	540.94763	92.02276	225.14012	544.41876	1055.50818	133.44868	344.06934	1022.31201	53.24121	398.49374	752.75555	-2.51360	394.66278	675.56268	18.19232	393.06540	597.03021	31.14904	321.68384	683.99677	45.31046	386.31537	526.25940	49.47093	391.26746	523.43695	172.86650	444.25302	443.71024	32.72788	440.48346	398.84686	29.66033	382.54865	440.95227	44.25869	387.43967	396.43341	39.96779	469.53998	101.84779	98.14261	438.96698	109.00401	187.64218	526.23730	78.88995	169.71368	313.23822	48.64272	176.64291	295.18686	65.70293	122.84841	347.36090	45.99836	63.36886
890	3.55600	544.44446	1055.98096	193.46185	347.02362	1018.74933	290.67368	375.22397	739.77203	369.00223	348.41418	664.20404	358.32556	327.19894	594.29443	358.04630	274.70874	693.98920	354.89291	318.62299	547.76672	351.53668	279.77118	539.83551	225.90959	410.55365	487.84879	348.40695	435.96011	448.15726	347.84906	362.39008	450.62244	359.45575	390.38058	415.94928	350.91052	599.29285	233.71027	288.85986	564.34698	219.96388	206.80634	651.85455	254.33708	223.18279	559.69720	114.21515	330.87558	491.91052	90.99396	281.63489	523.69751	89.35914	226.07095	539.49481	1056.06592	133.82260	340.67792	1022.71716	52.72149	395.40994	753.05463	-2.56021	392.18866	675.78455	18.06702	391.25162	597.30188	31.02379	319.19571	683.72455	45.36250	385.16766	526.41479	49.37739	389.95877	523.56360	172.73422	443.46408	444.10788	32.75164	439.94067	399.24365	29.64136	381.75006	441.13922	44.18518	386.74435	396.63889	39.84509	469.32489	102.09448	98.15559	438.72586	109.23454	187.66776	526.09393	79.11893	169.75667	313.19159	48.61026	176.56892	294.98505	65.56355	122.97698	347.34412	45.95382	63.30065
891	3.56000	539.42810	1056.53491	193.85880	341.68018	1019.73798	290.01920	367.40607	741.06592	369.09854	340.99484	666.09418	358.88257	318.17770	595.96271	357.82755	266.46805	695.84436	354.04672	309.30887	549.32678	351.12030	271.39636	541.88458	225.16626	400.71790	487.68973	348.11673	425.48587	447.63519	347.73892	351.96149	451.31339	358.93033	379.29419	415.89258	350.53140	585.55640	230.35513	289.50415	550.66608	217.19226	207.33264	640.33008	250.57030	223.29187	543.57288	111.91151	331.59244	475.14627	90.08884	282.11765	508.19891	88.72720	226.21036	534.60895	1056.61255	134.15147	335.09137	1023.25562	52.80626	392.31470	753.30969	-2.57305	389.74014	676.00818	17.94522	389.44693	597.50885	30.96139	316.78668	683.48077	45.41077	383.98965	526.56287	49.27144	388.66608	523.74261	172.72668	442.70767	444.45636	32.80277	439.33377	399.59805	29.66016	381.05951	441.33148	43.99586	386.10345	396.83224	39.72296	469.08252	102.30749	98.20954	438.44028	109.47856	187.69281	526.03247	79.43905	169.72316	313.16275	48.58495	176.50833	295.17731	65.61105	122.47354	347.32925	45.89709	63.25014
892	3.56400	534.42981	1057.02722	194.22404	336.23956	1020.72009	289.29715	359.64148	742.27124	369.22205	331.62350	666.98029	358.25378	309.29395	597.56128	357.60590	258.31900	697.97986	353.00925	300.91058	551.03302	350.56821	263.31531	543.91852	224.47516	390.91452	487.46973	347.78613	415.11407	447.03873	347.57477	341.55170	451.97522	358.36371	368.47690	415.89996	350.21356	571.62555	226.87271	290.12778	537.07983	214.42021	207.84613	626.59668	245.68318	224.88046	526.49152	109.57140	332.35452	458.15338	89.25694	282.59811	490.99112	86.69643	227.06204	529.71680	1057.08923	134.46448	330.60226	1023.60425	52.60236	389.25223	753.60046	-2.62895	387.26019	676.18530	17.84610	387.63733	597.71051	30.88682	314.31055	683.19989	45.43666	382.80289	526.70612	49.18275	387.39551	523.87183	172.61861	441.93787	444.78516	32.86714	438.60071	399.94641	29.74899	380.22025	441.53543	43.91787	385.52789	397.04315	39.58750	469.28763	102.91519	97.76181	438.20264	109.75378	187.71774	525.92462	79.71235	169.70113	313.08179	48.55815	176.47177	295.08505	65.53123	122.38173	347.31161	45.84349	63.20235
893	3.56800	529.38495	1057.48230	194.61224	330.80115	1021.61902	288.61823	351.90115	743.48022	369.33340	323.40005	668.40033	358.22977	300.47089	599.14319	357.32797	250.37137	699.81592	352.14188	291.85617	552.59644	350.06635	255.33293	545.85913	223.74306	381.23148	487.19012	347.44214	404.69809	446.36945	347.44904	331.18622	452.57858	357.81363	359.97595	417.40588	352.00403	557.67834	223.34880	290.74512	523.61548	211.41536	208.08792	613.34436	240.64877	225.74974	509.60901	107.31797	333.15302	441.01035	88.54238	283.04126	473.91217	84.97161	227.69078	524.80011	1057.52100	134.75067	326.13467	1023.86377	52.40310	386.22476	753.79718	-2.67688	384.77448	676.33417	17.78831	385.83850	597.92261	30.85792	311.86331	682.85114	45.51232	381.64044	526.82343	49.12086	386.15100	523.98816	172.57262	441.14041	445.10089	32.87308	437.94443	400.25937	29.79382	379.40988	441.68674	43.81982	384.82596	397.22278	39.48263	468.58334	102.61118	98.36929	437.91864	110.03971	187.75250	525.79968	79.94987	169.71770	312.85269	48.58668	176.52396	294.99515	65.44836	122.28922	347.31308	45.79465	63.14585
894	3.57200	524.32465	1057.87866	194.96294	325.45108	1022.34338	287.91806	344.24121	744.64374	369.45657	316.29803	670.23822	358.86887	291.66229	600.69751	356.99210	242.57501	701.78558	351.21597	283.36856	554.81116	349.91986	247.52263	547.67426	223.06052	371.56839	487.05734	347.51978	394.44434	445.69238	347.29077	320.56433	453.30515	356.46732	346.77838	415.66666	349.38361	543.41571	219.68208	291.73544	509.60507	208.42792	208.61563	599.81628	235.66592	227.01884	492.53589	105.03215	333.89169	423.80530	87.80192	283.54596	456.72232	83.30854	228.39389	519.89404	1057.92395	134.99281	321.61588	1024.05798	52.23925	383.17667	754.01227	-2.74406	382.33127	676.51367	17.69379	384.08588	598.14313	30.79901	309.35031	682.56799	45.55256	380.41119	526.95056	49.05640	384.91623	524.08673	172.54425	440.32043	445.41589	32.94075	437.25568	400.55994	29.84932	379.15930	442.16263	43.11759	384.11856	397.38245	39.41555	468.33862	102.86170	98.41245	435.93646	110.74142	188.41821	526.88367	80.61353	168.35426	312.67764	48.61839	176.56148	294.88776	65.38588	122.20192	347.28482	45.75388	63.09015
895	3.57600	519.33759	1058.28809	195.32202	320.11609	1023.05664	287.19730	336.62991	745.77356	369.54459	308.19727	671.54071	358.78503	283.01138	602.23132	356.57620	234.84959	703.67499	350.22879	273.26743	556.12762	349.11115	239.87358	549.43506	222.34575	361.99164	486.66870	347.15244	384.17184	444.89569	347.10657	310.49939	453.84344	355.89093	335.89575	415.42310	348.90744	529.22113	216.02792	292.24014	495.46326	205.38519	209.16615	586.45770	230.32056	227.39412	475.36313	102.82614	334.67545	406.44009	87.14050	284.09195	439.51813	81.63735	229.03442	514.98199	1058.26746	135.25603	317.12134	1024.16992	52.08577	380.07562	754.16229	-2.72572	380.16669	676.75037	17.65067	382.38345	598.42188	30.69091	306.91354	682.20074	45.55542	379.24170	527.06519	48.96405	383.60214	524.15936	172.48952	439.48135	445.73145	32.98660	436.56439	400.86758	29.87279	378.67358	442.57251	42.70292	383.37469	397.54852	39.33706	468.11734	103.17236	98.48647	437.34421	110.49697	187.87979	526.60199	81.03987	168.41397	312.71506	48.54215	176.43155	294.79071	65.27715	122.14173	347.26776	45.70395	63.03497
896	3.58000	514.32294	1058.66724	195.67999	314.74225	1023.61761	286.50824	329.09857	746.79065	369.67120	300.64703	673.32520	359.04324	274.49289	603.72162	356.11981	227.16571	705.50153	349.27155	263.72733	557.70337	348.61746	232.26706	551.15503	221.60858	352.62598	486.30392	346.80991	374.02390	444.08270	346.93283	300.52704	454.36807	355.39993	328.21924	417.62665	352.72354	514.86157	212.29900	292.79550	480.50409	202.16354	209.69211	573.05914	225.13788	228.12263	458.05725	100.59911	335.47559	388.90762	86.56550	284.64355	422.29291	80.30000	229.61787	510.13226	1058.62695	135.53159	312.65176	1024.22314	51.94163	377.03015	754.30902	-2.75200	377.42960	676.79449	17.56735	380.52289	598.58124	30.72924	304.42261	681.83734	45.62959	378.18732	527.20251	48.82193	382.18115	524.17004	172.44633	438.65454	446.07877	33.03751	435.82382	401.16373	29.93343	377.77975	442.75458	42.70120	382.58240	397.71271	39.29149	467.90140	103.46941	98.53674	437.03101	110.73978	187.92230	526.47339	81.38542	168.44858	312.62003	48.51705	176.40921	294.68146	65.20840	122.06474	347.25690	45.66639	63.00873
